<svg width="865" height="144" viewBox="0 0 865 144" fill="none" xmlns="http://www.w3.org/2000/svg">
<path d="M297.447 50.1177H310.708V31.0588H330.774V50.1177H344.035V0.705887H330.774V19.9765H310.708V0.705887H297.447V50.1177Z" fill="#20C7D7"/>
<path d="M404.001 50.8235C419.894 50.8235 430.859 40.5065 430.859 25.4118C430.859 10.317 419.894 0 404.001 0C388.108 0 377.212 10.317 377.212 25.4118C377.212 40.5065 388.108 50.8235 404.001 50.8235ZM404.001 39.4679C396.02 39.4679 390.537 33.7208 390.537 25.4118C390.537 17.1027 396.02 11.3557 404.001 11.3557C411.982 11.3557 417.534 17.1027 417.534 25.4118C417.534 33.7208 411.982 39.4679 404.001 39.4679Z" fill="#20C7D7"/>
<path d="M485.585 50.8235C498.095 50.8235 506.388 44.6087 506.388 35.3555C506.388 26.1023 500.099 22.3043 491.667 20.7852L484.894 19.5422C480.885 18.7826 478.811 17.1944 478.811 14.6394C478.811 11.9463 481.3 10.1509 485.17 10.1509C489.317 10.1509 492.082 12.3606 492.082 15.6061H505.421C505.421 6.422 497.058 0 484.963 0C472.66 0 464.435 6.21484 464.435 15.399C464.435 25.1356 470.587 28.8645 479.433 30.3836L486.276 31.5575C490.423 32.3171 492.151 33.6292 492.151 36.1151C492.151 38.7391 489.386 40.4655 485.239 40.4655C479.917 40.4655 476.392 37.9105 476.392 34.1125H463.33C463.33 43.9872 472.384 50.8235 485.585 50.8235Z" fill="#20C7D7"/>
<path d="M541.683 50.1177H555.046V37.4824H563.106C576.257 37.4824 584.741 30.2118 584.741 18.9177C584.741 7.8353 576.398 0.705887 563.459 0.705887H541.683V50.1177ZM555.046 26.6824V11.5059H562.328C567.631 11.5059 571.237 14.5412 571.237 18.9177C571.237 23.5765 567.631 26.6824 562.328 26.6824H555.046Z" fill="#20C7D7"/>
<path d="M615.8 50.1177H629.212V0.705887H615.8V50.1177Z" fill="#20C7D7"/>
<path d="M706.859 0.705887H661.682V11.7882H677.59V50.1177H690.952V11.7882H706.859V0.705887Z" fill="#20C7D7"/>
<path d="M727.33 50.1177H741.553L745.073 41.4353H765.422L768.942 50.1177H783.095L761.549 0.705887H748.946L727.33 50.1177ZM749.157 31.0588L755.212 15.8824L761.338 31.0588H749.157Z" fill="#20C7D7"/>
<path d="M828.881 39.1765V0.705887H815.565V50.1177H853.683V39.1765H828.881Z" fill="#20C7D7"/>
<path d="M852.271 64.9412H832.506L840.271 83.2941L852.271 64.9412Z" fill="#0A3782"/>
<path d="M332.134 144C342.67 144 351.594 140.558 358.046 134.212L358.798 142.171H374.388V101.082H333.531L333.961 115.818H351.379C348.907 122.487 342.133 126.36 334.391 126.36C322.242 126.36 313.855 117.539 313.855 104.524C313.855 91.5092 322.027 82.7966 334.391 82.7966C342.348 82.7966 349.229 86.1311 352.455 94.0907H373.851C370.195 76.6655 355.25 64.9412 334.069 64.9412C309.555 64.9412 293.212 80.7529 293.212 104.524C293.212 128.188 308.802 144 332.134 144Z" fill="#0A3782"/>
<path d="M421.628 144C445.25 144 459.094 130.456 459.094 107.554V64.9412H438.109V108.104C438.109 118.785 431.626 125.612 421.628 125.612C411.629 125.612 405.256 118.785 405.256 108.104V64.9412H384.271V107.554C384.271 130.456 398.115 144 421.628 144Z" fill="#0A3782"/>
<path d="M456.977 144H479.841L485.501 130.108H518.213L523.873 144H546.624L511.987 64.9412H491.726L456.977 144ZM492.066 113.506L501.8 89.2235L511.648 113.506H492.066Z" fill="#0A3782"/>
<path d="M627.8 144L606.567 116.668C616.054 112.376 621.363 104.471 621.363 92.6118C621.363 74.88 608.374 64.9412 587.593 64.9412H551.565V144H572.911V120.395H584.77L602.501 144H627.8ZM572.911 82.2212H585.899C594.257 82.2212 599.904 85.8353 599.904 92.6118C599.904 99.6141 594.031 103.002 585.334 103.002H572.911V82.2212Z" fill="#0A3782"/>
<path d="M752.145 64.9412V82.2284V112.729C752.145 121.317 748.195 126.162 741.173 126.162C734.041 126.162 730.091 121.317 730.091 112.729V109.756H709.683V112.729C709.683 131.998 721.862 144 741.392 144C761.033 144 773.212 131.558 773.212 111.848V64.9412H752.145Z" fill="#0A3782"/>
<path d="M667.275 144C690.897 144 704.741 130.456 704.741 107.554V64.9412H683.756V108.104C683.756 118.785 677.273 125.612 667.275 125.612C657.276 125.612 650.904 118.785 650.904 108.104V64.9412H629.918V107.554C629.918 130.456 643.762 144 667.275 144Z" fill="#0A3782"/>
<path d="M774.624 144H797.488L803.148 130.108H835.86L841.519 144H864.271L829.634 64.9412H809.373L774.624 144ZM809.713 113.506L819.447 89.2235L829.295 113.506H809.713Z" fill="#0A3782"/>
<path d="M0 143.655V0.250076H41.6337V51.1357H35.273H26.5993H15.0344V92.7694H26.5993H41.6337L75.9429 51.1357V0.250076H117.577V51.1357H168.462V92.7694H117.577V143.655H75.9429V92.7694H41.6337V143.655H0Z" fill="#0A3782"/>
<path d="M217.228 0.635573H180.027C179.814 0.635573 179.642 0.808166 179.642 1.02107V1.07965C179.642 1.26825 179.78 1.42929 179.966 1.46141C203.068 5.45362 218.278 25.9953 223.01 35.7158H266.764C252.732 8.26842 227.893 0.892571 217.228 0.635573Z" fill="#0A3782"/>
<path d="M122.202 122.453V97.0098H151.886C157.128 117.829 174.433 131.725 183.134 136.509C183.424 136.668 183.39 137.099 183.08 137.215C155.347 147.552 130.984 131.744 122.202 122.453Z" fill="#20C7D7"/>
<path d="M122.202 21.4769V46.9197H151.886C157.128 26.1009 174.433 12.2045 183.134 7.42072C183.424 7.26105 183.39 6.83053 183.08 6.71478C155.347 -3.62218 130.984 12.186 122.202 21.4769Z" fill="#20C7D7"/>
<path d="M180.027 143.269H217.228C227.893 143.012 252.732 135.637 266.764 108.189C271.647 99.9653 279.755 76.8869 273.125 51.1357H180.027V92.7694H228.985C228.535 94.6326 226.711 100.325 223.01 108.189C218.496 117.782 203.07 138.45 179.966 142.444C179.78 142.476 179.642 142.637 179.642 142.825V142.884C179.642 143.097 179.814 143.269 180.027 143.269Z" fill="#0A3782"/>
<path d="M26.5991 92.7694V51.1357H78.2557L41.6335 92.7694H26.5991Z" fill="#0A3782"/>
</svg>
